<?xml version="1.0" encoding="UTF-8"?><svg xmlns="http://www.w3.org/2000/svg" xmlns:xlink="http://www.w3.org/1999/xlink" width="120pt" zoomAndPan="magnify" viewBox="0 0 120 30.000001" height="30.000001pt" preserveAspectRatio="xMidYMid meet" version="1.2"><defs><g/><clipPath xml:id="clip1" id="clip1"><path d="M 4.839844 2.765625 L 23.710938 2.765625 L 23.710938 25.992188 L 4.839844 25.992188 Z M 4.839844 2.765625 "/></clipPath></defs><g xml:id="surface1" id="surface1"><g style="fill:rgb(0%,0%,0%);fill-opacity:1;"><g transform="translate(26.884299, 21.819267)"><path style="stroke:none;" d="M 6.347656 -7.261719 C 7.847656 -7.652344 9.542969 -8.566406 9.542969 -10.714844 C 9.542969 -13.476562 6.152344 -13.628906 5.171875 -13.628906 L 1.042969 -13.628906 L 1.042969 0.0234375 L 4.78125 0.0234375 C 5.371094 0.0234375 10.019531 -0.0664062 10.019531 -3.761719 C 10.019531 -6.128906 8.21875 -7.019531 6.347656 -7.261719 Z M 4.347656 -13.28125 C 6.433594 -13.28125 7.890625 -12.609375 7.890625 -10.476562 C 7.890625 -8.347656 6.324219 -7.324219 3.78125 -7.324219 L 2.585938 -7.324219 L 2.585938 -13.28125 Z M 3.78125 -0.324219 L 2.585938 -0.324219 L 2.585938 -6.976562 L 4.347656 -6.976562 C 7.652344 -6.976562 8.367188 -5.261719 8.367188 -3.523438 C 8.367188 -0.957031 6.28125 -0.324219 3.78125 -0.324219 Z M 3.78125 -0.324219 "/></g></g><g style="fill:rgb(0%,0%,0%);fill-opacity:1;"><g transform="translate(37.774182, 21.819267)"><path style="stroke:none;" d="M 2.585938 -0.324219 L 2.585938 -13.628906 L 1.042969 -13.628906 L 1.042969 0.0234375 L 8.019531 0.0234375 L 8.019531 -0.324219 Z M 2.585938 -0.324219 "/></g></g><g style="fill:rgb(0%,0%,0%);fill-opacity:1;"><g transform="translate(46.642594, 21.819267)"><path style="stroke:none;" d="M 8.347656 -13.890625 C 4.433594 -13.890625 0.871094 -11.804688 0.871094 -6.761719 C 0.871094 -0.957031 5.609375 0.414062 8.347656 0.414062 C 11.066406 0.414062 15.824219 -0.957031 15.824219 -6.761719 C 15.824219 -11.804688 12.238281 -13.890625 8.347656 -13.890625 Z M 8.347656 0.0429688 C 5.890625 0.0429688 2.457031 -1.042969 2.457031 -6.761719 C 2.457031 -12.390625 6.238281 -13.542969 8.347656 -13.542969 C 10.457031 -13.542969 14.238281 -12.390625 14.238281 -6.761719 C 14.238281 -1.042969 10.78125 0.0429688 8.347656 0.0429688 Z M 8.347656 0.0429688 "/></g></g><g style="fill:rgb(0%,0%,0%);fill-opacity:1;"><g transform="translate(63.466491, 21.819267)"><path style="stroke:none;" d="M 9.195312 -6.933594 L 9.195312 -6.566406 L 11.152344 -6.566406 L 11.152344 -0.457031 C 10.414062 -0.175781 9.433594 0.0429688 8.347656 0.0429688 C 4.957031 0.0429688 2.457031 -1.652344 2.457031 -6.761719 C 2.457031 -12.390625 6.042969 -13.542969 8.347656 -13.542969 C 10.914062 -13.542969 12.324219 -12.933594 12.324219 -12.933594 L 12.324219 -13.367188 C 12.324219 -13.367188 10.824219 -13.890625 8.347656 -13.890625 C 4.433594 -13.890625 0.871094 -11.804688 0.871094 -6.761719 C 0.871094 -0.957031 5.414062 0.414062 8.152344 0.414062 C 10.867188 0.414062 12.695312 -0.738281 12.695312 -0.738281 L 12.695312 -6.933594 Z M 9.195312 -6.933594 "/></g></g><g style="fill:rgb(0%,0%,0%);fill-opacity:1;"><g transform="translate(77.247312, 21.819267)"><path style="stroke:none;" d="M 1.261719 0.0234375 L 2.804688 0.0234375 L 2.804688 -13.628906 L 1.261719 -13.628906 Z M 1.261719 0.0234375 "/></g></g><g style="fill:rgb(0%,0%,0%);fill-opacity:1;"><g transform="translate(81.420683, 21.819267)"><path style="stroke:none;" d="M 6.671875 -13.628906 L 1.042969 -13.628906 L 1.042969 0.0234375 L 5.652344 0.0234375 C 6.304688 0.0234375 13.585938 0.347656 13.585938 -7.019531 C 13.585938 -12.976562 9.195312 -13.628906 6.671875 -13.628906 Z M 5.609375 -0.324219 L 2.585938 -0.324219 L 2.585938 -13.261719 L 5.847656 -13.261719 C 8.324219 -13.261719 11.976562 -12.347656 11.976562 -7.019531 C 11.976562 -1.71875 8.585938 -0.324219 5.609375 -0.324219 Z M 5.609375 -0.324219 "/></g></g><path style=" stroke:none;fill-rule:nonzero;fill:rgb(14.898682%,14.898682%,14.898682%);fill-opacity:1;" d="M 2.988281 2.765625 L 25.488281 2.765625 L 25.488281 25.992188 L 2.988281 25.992188 Z M 2.988281 2.765625 "/><g clip-rule="nonzero" clip-path="url(#clip1)"><path style=" stroke:none;fill-rule:nonzero;fill:rgb(95.689392%,70.588684%,0%);fill-opacity:1;" d="M 18.878906 21.730469 C 18.785156 21.738281 18.761719 21.855469 18.828125 21.90625 C 18.539062 21.988281 18.164062 22.03125 17.632812 21.957031 C 17.242188 21.90625 16.703125 21.683594 16.082031 21.34375 C 16.078125 20.785156 16.078125 20.179688 16.078125 19.558594 C 16.183594 19.292969 16.4375 19.171875 16.542969 18.933594 C 16.660156 18.667969 17.699219 17.960938 17.605469 17.621094 C 17.542969 17.394531 16.246094 16.542969 16.078125 16.277344 C 16.078125 15.375 16.082031 14.53125 16.082031 13.828125 C 16.410156 13.695312 16.796875 13.617188 17.25 13.632812 C 18.367188 13.671875 19.28125 14.183594 19.945312 14.832031 C 19.542969 14.804688 19.1875 14.839844 19.164062 14.996094 C 19.113281 15.324219 18.730469 15.878906 18.347656 16.28125 C 17.964844 16.6875 17.65625 16.585938 17.65625 16.6875 C 17.65625 16.785156 17.886719 16.914062 18.015625 16.914062 C 18.015625 16.914062 18.144531 16.6875 18.320312 16.636719 C 18.5 16.585938 20.109375 16.257812 20.902344 17.441406 C 21.160156 17.832031 21.214844 18.414062 21.222656 18.808594 C 21.132812 19.667969 20.851562 20.53125 20.261719 21.125 C 19.839844 21.554688 19.28125 21.691406 18.878906 21.730469 Z M 16.035156 8.5 C 16.117188 8.601562 16.207031 8.691406 16.304688 8.765625 C 16.816406 9.144531 18.414062 10.335938 18.753906 10.910156 C 19.011719 11.335938 19.046875 11.765625 18.882812 12.070312 C 18.792969 12.234375 18.632812 12.34375 18.410156 12.4375 C 17.597656 12.5 16.875 12.742188 16.457031 13.105469 C 16.324219 13.160156 16.199219 13.234375 16.082031 13.316406 L 16.082031 11.949219 C 16.082031 11.511719 16.058594 10.0625 16.035156 8.5 Z M 21.871094 13.480469 C 21.027344 12.71875 19.839844 12.410156 18.757812 12.421875 C 19.269531 12.023438 19.804688 11.488281 20.1875 11.109375 C 21.257812 10.050781 20.542969 9.117188 20.109375 8.613281 C 19.382812 7.769531 17.632812 6.972656 17.503906 5.914062 C 17.445312 5.433594 17.597656 5.101562 17.800781 4.871094 C 18.035156 4.683594 18.28125 4.515625 18.535156 4.425781 C 18.59375 4.40625 18.628906 4.398438 18.628906 4.398438 L 18.628906 4.394531 C 18.765625 4.355469 18.902344 4.335938 19.035156 4.347656 C 19.171875 4.363281 19.34375 4.417969 19.519531 4.484375 C 19.675781 4.566406 19.808594 4.6875 19.90625 4.855469 C 20.089844 5.171875 19.976562 5.652344 19.902344 5.9375 C 19.667969 6.125 19.445312 6.253906 19.496094 6.367188 C 19.558594 6.507812 19.84375 6.203125 20.0625 6.007812 C 20.792969 5.464844 21.355469 5.363281 21.539062 5.183594 C 21.644531 5.078125 21.40625 4.460938 20.773438 4.199219 C 20.136719 3.933594 19.5 4 19.058594 4.113281 C 19.035156 4.117188 19.007812 4.117188 18.984375 4.121094 C 18.582031 4.1875 18.117188 4.417969 17.769531 4.652344 C 17.65625 4.722656 17.546875 4.796875 17.453125 4.878906 C 16.910156 5.351562 16.347656 5.972656 15.996094 6.457031 C 15.984375 5.765625 15.972656 5.136719 15.964844 4.660156 C 16.03125 4.367188 16.148438 4.089844 16.226562 3.695312 C 16.371094 2.980469 15.957031 2.769531 15.957031 2.769531 C 15.609375 3.265625 15.742188 4.886719 15.839844 6.222656 C 15.84375 6.371094 15.84375 6.519531 15.847656 6.675781 C 15.796875 6.757812 15.75 6.832031 15.71875 6.898438 C 15.515625 7.289062 15.625 7.839844 15.875 8.265625 C 15.90625 9.917969 15.929688 11.492188 15.929688 11.949219 L 15.929688 13.03125 C 15.929688 13.15625 15.929688 13.289062 15.929688 13.429688 C 15.792969 13.535156 15.667969 13.65625 15.550781 13.777344 C 15.53125 13.792969 15.511719 13.8125 15.488281 13.835938 C 15.28125 14.035156 15.03125 14.332031 14.847656 14.644531 C 14.492188 15.25 14.472656 15.601562 14.703125 15.535156 C 14.941406 15.464844 14.960938 14.894531 14.992188 14.761719 C 15.019531 14.664062 15.222656 14.417969 15.449219 14.207031 C 15.589844 14.089844 15.75 13.984375 15.929688 13.898438 C 15.925781 14.46875 15.925781 15.128906 15.925781 15.835938 C 15.609375 16.332031 14.433594 17.433594 14.367188 17.5 C 14.296875 17.574219 14.082031 17.890625 14.863281 18.375 C 15.472656 18.757812 15.808594 19.222656 15.925781 19.410156 C 15.925781 20.054688 15.925781 20.679688 15.925781 21.261719 C 15.15625 20.828125 14.273438 20.226562 13.394531 19.546875 C 12.605469 18.933594 11.0625 17.882812 10.144531 17.492188 C 11.175781 17.167969 12.628906 16.425781 13.695312 15.058594 C 15.628906 12.578125 15.777344 9.066406 14.164062 6.972656 C 12.527344 4.855469 9.882812 4.941406 9.082031 5.484375 C 8.5625 5.835938 7.992188 6.824219 6.992188 7.625 C 6.761719 7.726562 6.402344 8.070312 6.347656 8.335938 C 6.171875 9.242188 5.148438 9.925781 5.25 10.503906 C 5.351562 11.085938 6.035156 11.867188 7.113281 12.546875 C 8.316406 13.304688 10.132812 13.960938 10.101562 14.894531 C 10.078125 15.648438 9.320312 15.816406 8.738281 15.871094 C 8.273438 15.875 7.699219 15.710938 7.316406 15.199219 C 6.785156 14.492188 6.84375 13.691406 6.894531 13.371094 C 6.746094 13.320312 6.636719 14.160156 6.554688 14.359375 C 6.511719 14.464844 6.296875 14.785156 6.125 15.070312 C 5.894531 15.320312 5.707031 15.699219 5.683594 15.804688 C 5.683594 15.804688 5.53125 16.003906 5.683594 16.054688 C 5.792969 16.089844 5.890625 15.769531 5.9375 15.582031 C 6.082031 15.679688 6.597656 16.167969 7.277344 16.386719 C 7.773438 16.546875 8.394531 16.425781 8.8125 16.273438 C 9.332031 16.136719 9.984375 15.757812 10.410156 14.996094 C 10.640625 14.585938 11.566406 13.828125 11.046875 12.597656 C 10.835938 12.097656 10.007812 11.632812 9.121094 11.113281 C 9.242188 10.945312 9.371094 10.769531 9.492188 10.613281 C 9.640625 10.492188 9.789062 10.378906 9.882812 10.285156 C 10.085938 10.085938 9.949219 9.8125 9.8125 9.847656 C 9.75 9.867188 9.921875 10.03125 9.769531 10.128906 C 9.730469 10.152344 9.675781 10.171875 9.609375 10.183594 C 9.359375 10.21875 8.917969 10.238281 8.265625 10.128906 C 7.613281 10.015625 7.191406 9.710938 6.960938 9.480469 C 6.65625 9.085938 6.546875 8.726562 6.613281 8.570312 C 6.652344 8.476562 6.703125 8.386719 6.753906 8.300781 C 7.050781 7.886719 7.625 7.160156 8.773438 7.101562 C 10.714844 7 12.664062 8.515625 13.21875 10.203125 C 13.855469 12.144531 13.5625 14.332031 12.503906 15.601562 C 11.566406 16.722656 10.554688 17.195312 9.863281 17.386719 C 9.753906 17.355469 9.660156 17.339844 9.589844 17.34375 C 8.949219 17.367188 8.003906 17.949219 8.003906 17.949219 C 7.078125 18.195312 6.710938 18.359375 6.371094 18.605469 C 5.195312 19.28125 4.882812 20.210938 4.863281 20.441406 C 4.839844 20.710938 5.058594 20.710938 5.160156 20.644531 C 5.308594 20.546875 5.367188 20.28125 5.503906 19.761719 C 5.679688 19.09375 6.257812 18.839844 6.625 18.765625 C 6.695312 18.75 6.761719 18.742188 6.828125 18.734375 C 6.902344 18.726562 6.980469 18.726562 7.058594 18.730469 C 8.617188 18.8125 10.238281 20.375 11.171875 21.050781 C 12.804688 22.238281 14.058594 22.992188 14.621094 22.992188 C 14.976562 22.992188 15.417969 22.765625 15.417969 22.765625 C 15.417969 22.765625 15.628906 22.746094 15.929688 22.710938 C 15.933594 23.363281 15.9375 23.878906 15.941406 24.183594 C 15.910156 24.421875 15.875 24.671875 15.839844 24.917969 C 15.78125 25.277344 15.753906 25.992188 16.035156 25.78125 C 16.210938 25.648438 16.253906 24.992188 16.210938 24.351562 C 16.199219 24.140625 16.136719 23.722656 16.085938 23.398438 C 16.085938 23.1875 16.085938 22.949219 16.085938 22.691406 C 16.578125 22.632812 17.246094 22.546875 17.71875 22.445312 C 18.445312 22.292969 19.234375 21.933594 19.488281 21.808594 C 19.554688 21.773438 19.589844 21.746094 19.609375 21.722656 C 21.175781 21.148438 22.609375 19.886719 23.121094 18.476562 C 23.59375 17.183594 23.710938 15.148438 21.871094 13.480469 "/></g><g style="fill:rgb(0%,0%,0%);fill-opacity:1;"><g transform="translate(94.247076, 21.202484)"><path style="stroke:none;" d="M 1.15625 0.0625 C 0.96875 0.0625 0.8125 0 0.6875 -0.125 C 0.570312 -0.25 0.515625 -0.40625 0.515625 -0.59375 C 0.515625 -0.78125 0.570312 -0.929688 0.6875 -1.046875 C 0.8125 -1.171875 0.96875 -1.234375 1.15625 -1.234375 C 1.332031 -1.234375 1.476562 -1.171875 1.59375 -1.046875 C 1.71875 -0.929688 1.78125 -0.78125 1.78125 -0.59375 C 1.78125 -0.40625 1.71875 -0.25 1.59375 -0.125 C 1.476562 0 1.332031 0.0625 1.15625 0.0625 Z M 1.15625 0.0625 "/></g></g><g style="fill:rgb(0%,0%,0%);fill-opacity:1;"><g transform="translate(96.536053, 21.202484)"><path style="stroke:none;" d="M 9.1875 -7 C 9.988281 -7 10.640625 -6.742188 11.140625 -6.234375 C 11.648438 -5.722656 11.90625 -4.988281 11.90625 -4.03125 L 11.90625 0 L 11.046875 0 L 11.046875 -3.921875 C 11.046875 -4.671875 10.863281 -5.238281 10.5 -5.625 C 10.144531 -6.019531 9.65625 -6.21875 9.03125 -6.21875 C 8.382812 -6.21875 7.867188 -6.003906 7.484375 -5.578125 C 7.097656 -5.148438 6.90625 -4.53125 6.90625 -3.71875 L 6.90625 0 L 6.03125 0 L 6.03125 -3.921875 C 6.03125 -4.671875 5.847656 -5.238281 5.484375 -5.625 C 5.128906 -6.019531 4.640625 -6.21875 4.015625 -6.21875 C 3.367188 -6.21875 2.851562 -6.003906 2.46875 -5.578125 C 2.082031 -5.148438 1.890625 -4.53125 1.890625 -3.71875 L 1.890625 0 L 1 0 L 1 -6.875 L 1.890625 -6.875 L 1.890625 -5.6875 C 2.109375 -6.113281 2.414062 -6.4375 2.8125 -6.65625 C 3.21875 -6.882812 3.664062 -7 4.15625 -7 C 4.757812 -7 5.285156 -6.851562 5.734375 -6.5625 C 6.179688 -6.28125 6.503906 -5.863281 6.703125 -5.3125 C 6.890625 -5.851562 7.207031 -6.269531 7.65625 -6.5625 C 8.101562 -6.851562 8.613281 -7 9.1875 -7 Z M 9.1875 -7 "/></g></g><g style="fill:rgb(0%,0%,0%);fill-opacity:1;"><g transform="translate(109.389537, 21.202484)"><path style="stroke:none;" d="M 7.21875 -3.78125 C 7.21875 -3.476562 7.207031 -3.25 7.1875 -3.09375 L 1.5 -3.09375 C 1.519531 -2.570312 1.644531 -2.125 1.875 -1.75 C 2.101562 -1.382812 2.398438 -1.109375 2.765625 -0.921875 C 3.140625 -0.734375 3.539062 -0.640625 3.96875 -0.640625 C 4.539062 -0.640625 5.019531 -0.773438 5.40625 -1.046875 C 5.800781 -1.328125 6.0625 -1.703125 6.1875 -2.171875 L 7.125 -2.171875 C 6.957031 -1.503906 6.597656 -0.957031 6.046875 -0.53125 C 5.492188 -0.113281 4.800781 0.09375 3.96875 0.09375 C 3.320312 0.09375 2.742188 -0.046875 2.234375 -0.328125 C 1.722656 -0.617188 1.320312 -1.03125 1.03125 -1.5625 C 0.75 -2.09375 0.609375 -2.71875 0.609375 -3.4375 C 0.609375 -4.144531 0.75 -4.765625 1.03125 -5.296875 C 1.3125 -5.835938 1.707031 -6.25 2.21875 -6.53125 C 2.738281 -6.820312 3.320312 -6.96875 3.96875 -6.96875 C 4.625 -6.96875 5.195312 -6.820312 5.6875 -6.53125 C 6.175781 -6.25 6.550781 -5.867188 6.8125 -5.390625 C 7.082031 -4.910156 7.21875 -4.375 7.21875 -3.78125 Z M 6.328125 -3.8125 C 6.335938 -4.320312 6.234375 -4.753906 6.015625 -5.109375 C 5.804688 -5.472656 5.515625 -5.75 5.140625 -5.9375 C 4.773438 -6.125 4.375 -6.21875 3.9375 -6.21875 C 3.28125 -6.21875 2.722656 -6.003906 2.265625 -5.578125 C 1.804688 -5.160156 1.550781 -4.570312 1.5 -3.8125 Z M 6.328125 -3.8125 "/></g></g></g></svg>