<?xml version="1.0" encoding="UTF-8"?><svg xmlns="http://www.w3.org/2000/svg" xmlns:xlink="http://www.w3.org/1999/xlink" width="120pt" zoomAndPan="magnify" viewBox="0 0 120 30.000001" height="30.000001pt" preserveAspectRatio="xMidYMid meet" version="1.2"><defs><g/><clipPath xml:id="clip1" id="clip1"><path d="M 6.925781 2.902344 L 25.796875 2.902344 L 25.796875 26 L 6.925781 26 Z M 6.925781 2.902344 "/></clipPath></defs><g xml:id="surface1" id="surface1"><g style="fill:rgb(0%,0%,0%);fill-opacity:1;"><g transform="translate(28.331351, 21.822585)"><path style="stroke:none;" d="M 6.214844 -7.109375 C 7.683594 -7.492188 9.34375 -8.386719 9.34375 -10.496094 C 9.34375 -13.199219 6.023438 -13.347656 5.066406 -13.347656 L 1.023438 -13.347656 L 1.023438 0.0195312 L 4.683594 0.0195312 C 5.257812 0.0195312 9.8125 -0.0625 9.8125 -3.683594 C 9.8125 -6.003906 8.046875 -6.875 6.214844 -7.109375 Z M 4.257812 -13.007812 C 6.300781 -13.007812 7.726562 -12.347656 7.726562 -10.261719 C 7.726562 -8.175781 6.195312 -7.175781 3.703125 -7.175781 L 2.535156 -7.175781 L 2.535156 -13.007812 Z M 3.703125 -0.320312 L 2.535156 -0.320312 L 2.535156 -6.832031 L 4.257812 -6.832031 C 7.492188 -6.832031 8.195312 -5.152344 8.195312 -3.449219 C 8.195312 -0.9375 6.152344 -0.320312 3.703125 -0.320312 Z M 3.703125 -0.320312 "/></g></g><g style="fill:rgb(0%,0%,0%);fill-opacity:1;"><g transform="translate(38.995897, 21.822585)"><path style="stroke:none;" d="M 2.535156 -0.320312 L 2.535156 -13.347656 L 1.023438 -13.347656 L 1.023438 0.0195312 L 7.855469 0.0195312 L 7.855469 -0.320312 Z M 2.535156 -0.320312 "/></g></g><g style="fill:rgb(0%,0%,0%);fill-opacity:1;"><g transform="translate(47.680799, 21.822585)"><path style="stroke:none;" d="M 8.175781 -13.601562 C 4.34375 -13.601562 0.851562 -11.558594 0.851562 -6.621094 C 0.851562 -0.9375 5.492188 0.40625 8.175781 0.40625 C 10.835938 0.40625 15.496094 -0.9375 15.496094 -6.621094 C 15.496094 -11.558594 11.984375 -13.601562 8.175781 -13.601562 Z M 8.175781 0.0429688 C 5.769531 0.0429688 2.40625 -1.023438 2.40625 -6.621094 C 2.40625 -12.132812 6.109375 -13.261719 8.175781 -13.261719 C 10.238281 -13.261719 13.945312 -12.132812 13.945312 -6.621094 C 13.945312 -1.023438 10.558594 0.0429688 8.175781 0.0429688 Z M 8.175781 0.0429688 "/></g></g><g style="fill:rgb(0%,0%,0%);fill-opacity:1;"><g transform="translate(64.15657, 21.822585)"><path style="stroke:none;" d="M 9.003906 -6.789062 L 9.003906 -6.429688 L 10.921875 -6.429688 L 10.921875 -0.445312 C 10.195312 -0.171875 9.238281 0.0429688 8.175781 0.0429688 C 4.855469 0.0429688 2.40625 -1.617188 2.40625 -6.621094 C 2.40625 -12.132812 5.917969 -13.261719 8.175781 -13.261719 C 10.6875 -13.261719 12.070312 -12.667969 12.070312 -12.667969 L 12.070312 -13.09375 C 12.070312 -13.09375 10.601562 -13.601562 8.175781 -13.601562 C 4.34375 -13.601562 0.851562 -11.558594 0.851562 -6.621094 C 0.851562 -0.9375 5.300781 0.40625 7.984375 0.40625 C 10.644531 0.40625 12.433594 -0.722656 12.433594 -0.722656 L 12.433594 -6.789062 Z M 9.003906 -6.789062 "/></g></g><g style="fill:rgb(0%,0%,0%);fill-opacity:1;"><g transform="translate(77.652233, 21.822585)"><path style="stroke:none;" d="M 1.234375 0.0195312 L 2.746094 0.0195312 L 2.746094 -13.347656 L 1.234375 -13.347656 Z M 1.234375 0.0195312 "/></g></g><g style="fill:rgb(0%,0%,0%);fill-opacity:1;"><g transform="translate(81.739247, 21.822585)"><path style="stroke:none;" d="M 6.535156 -13.347656 L 1.023438 -13.347656 L 1.023438 0.0195312 L 5.535156 0.0195312 C 6.171875 0.0195312 13.304688 0.339844 13.304688 -6.875 C 13.304688 -12.707031 9.003906 -13.347656 6.535156 -13.347656 Z M 5.492188 -0.320312 L 2.535156 -0.320312 L 2.535156 -12.984375 L 5.726562 -12.984375 C 8.152344 -12.984375 11.730469 -12.089844 11.730469 -6.875 C 11.730469 -1.683594 8.410156 -0.320312 5.492188 -0.320312 Z M 5.492188 -0.320312 "/></g></g><path style=" stroke:none;fill-rule:nonzero;fill:rgb(14.898682%,14.898682%,14.898682%);fill-opacity:1;" d="M 4.839844 2.902344 L 28.0625 2.902344 L 28.0625 26.128906 L 4.839844 26.128906 Z M 4.839844 2.902344 "/><g clip-rule="nonzero" clip-path="url(#clip1)"><path style=" stroke:none;fill-rule:nonzero;fill:rgb(95.689392%,70.588684%,0%);fill-opacity:1;" d="M 20.964844 21.867188 C 20.871094 21.875 20.847656 21.992188 20.914062 22.042969 C 20.625 22.121094 20.25 22.167969 19.71875 22.09375 C 19.328125 22.042969 18.789062 21.820312 18.167969 21.480469 C 18.164062 20.921875 18.164062 20.316406 18.164062 19.695312 C 18.269531 19.429688 18.523438 19.308594 18.628906 19.070312 C 18.746094 18.804688 19.789062 18.097656 19.691406 17.757812 C 19.628906 17.53125 18.332031 16.679688 18.164062 16.414062 C 18.164062 15.511719 18.167969 14.667969 18.167969 13.964844 C 18.496094 13.832031 18.882812 13.753906 19.335938 13.769531 C 20.453125 13.808594 21.367188 14.320312 22.03125 14.96875 C 21.628906 14.941406 21.273438 14.976562 21.25 15.132812 C 21.199219 15.460938 20.816406 16.015625 20.433594 16.417969 C 20.050781 16.824219 19.742188 16.722656 19.742188 16.824219 C 19.742188 16.921875 19.972656 17.050781 20.101562 17.050781 C 20.101562 17.050781 20.230469 16.824219 20.40625 16.769531 C 20.585938 16.722656 22.195312 16.394531 22.988281 17.578125 C 23.246094 17.964844 23.300781 18.550781 23.308594 18.945312 C 23.21875 19.804688 22.9375 20.664062 22.347656 21.261719 C 21.925781 21.691406 21.367188 21.828125 20.964844 21.867188 Z M 18.121094 8.636719 C 18.203125 8.738281 18.292969 8.828125 18.390625 8.902344 C 18.902344 9.277344 20.5 10.472656 20.839844 11.046875 C 21.097656 11.472656 21.132812 11.902344 20.96875 12.207031 C 20.878906 12.367188 20.71875 12.480469 20.496094 12.574219 C 19.683594 12.632812 18.960938 12.878906 18.542969 13.238281 C 18.414062 13.296875 18.285156 13.367188 18.167969 13.449219 L 18.167969 12.085938 C 18.167969 11.648438 18.144531 10.195312 18.121094 8.636719 Z M 23.957031 13.617188 C 23.113281 12.855469 21.925781 12.546875 20.84375 12.558594 C 21.355469 12.160156 21.890625 11.625 22.273438 11.246094 C 23.34375 10.1875 22.628906 9.253906 22.195312 8.75 C 21.46875 7.90625 19.71875 7.109375 19.589844 6.050781 C 19.535156 5.570312 19.683594 5.234375 19.890625 5.007812 C 20.121094 4.820312 20.367188 4.652344 20.621094 4.558594 C 20.679688 4.542969 20.714844 4.535156 20.714844 4.535156 L 20.714844 4.527344 C 20.851562 4.488281 20.988281 4.472656 21.121094 4.484375 C 21.257812 4.5 21.429688 4.554688 21.609375 4.621094 C 21.761719 4.703125 21.894531 4.824219 21.992188 4.992188 C 22.175781 5.308594 22.0625 5.789062 21.988281 6.074219 C 21.753906 6.261719 21.535156 6.390625 21.582031 6.503906 C 21.644531 6.644531 21.929688 6.339844 22.148438 6.144531 C 22.878906 5.601562 23.441406 5.5 23.625 5.316406 C 23.730469 5.214844 23.492188 4.597656 22.859375 4.335938 C 22.222656 4.070312 21.585938 4.136719 21.144531 4.25 C 21.121094 4.253906 21.09375 4.253906 21.070312 4.257812 C 20.667969 4.324219 20.203125 4.554688 19.855469 4.789062 C 19.742188 4.859375 19.636719 4.933594 19.539062 5.015625 C 18.996094 5.488281 18.433594 6.109375 18.082031 6.59375 C 18.070312 5.902344 18.058594 5.273438 18.050781 4.796875 C 18.117188 4.5 18.234375 4.226562 18.3125 3.828125 C 18.457031 3.113281 18.042969 2.90625 18.042969 2.90625 C 17.699219 3.402344 17.828125 5.019531 17.925781 6.355469 C 17.929688 6.503906 17.929688 6.65625 17.933594 6.8125 C 17.882812 6.890625 17.835938 6.96875 17.804688 7.035156 C 17.601562 7.425781 17.710938 7.972656 17.960938 8.402344 C 17.992188 10.050781 18.015625 11.628906 18.015625 12.085938 L 18.015625 13.167969 C 18.015625 13.292969 18.015625 13.425781 18.015625 13.566406 C 17.878906 13.671875 17.753906 13.792969 17.636719 13.914062 C 17.617188 13.929688 17.597656 13.949219 17.574219 13.972656 C 17.367188 14.171875 17.121094 14.464844 16.933594 14.777344 C 16.578125 15.382812 16.558594 15.734375 16.789062 15.671875 C 17.027344 15.601562 17.046875 15.03125 17.078125 14.894531 C 17.105469 14.796875 17.308594 14.554688 17.535156 14.34375 C 17.675781 14.226562 17.835938 14.121094 18.015625 14.035156 C 18.015625 14.605469 18.011719 15.265625 18.011719 15.972656 C 17.699219 16.46875 16.519531 17.570312 16.453125 17.636719 C 16.382812 17.710938 16.171875 18.027344 16.949219 18.511719 C 17.558594 18.890625 17.894531 19.359375 18.011719 19.546875 C 18.011719 20.191406 18.011719 20.816406 18.015625 21.394531 C 17.242188 20.960938 16.359375 20.363281 15.480469 19.683594 C 14.691406 19.070312 13.148438 18.019531 12.234375 17.628906 C 13.261719 17.304688 14.714844 16.5625 15.78125 15.195312 C 17.71875 12.714844 17.863281 9.203125 16.25 7.109375 C 14.613281 4.992188 11.96875 5.078125 11.167969 5.621094 C 10.648438 5.972656 10.078125 6.957031 9.078125 7.761719 C 8.851562 7.863281 8.488281 8.207031 8.433594 8.472656 C 8.257812 9.378906 7.234375 10.0625 7.335938 10.640625 C 7.4375 11.222656 8.121094 12.003906 9.199219 12.683594 C 10.402344 13.441406 12.21875 14.097656 12.1875 15.03125 C 12.164062 15.785156 11.40625 15.953125 10.824219 16.007812 C 10.359375 16.011719 9.785156 15.847656 9.402344 15.335938 C 8.871094 14.628906 8.929688 13.828125 8.980469 13.507812 C 8.832031 13.457031 8.722656 14.296875 8.644531 14.496094 C 8.597656 14.601562 8.382812 14.921875 8.210938 15.207031 C 7.980469 15.457031 7.792969 15.835938 7.769531 15.9375 C 7.769531 15.9375 7.617188 16.140625 7.769531 16.191406 C 7.882812 16.226562 7.976562 15.90625 8.023438 15.714844 C 8.167969 15.8125 8.683594 16.304688 9.367188 16.523438 C 9.859375 16.679688 10.480469 16.5625 10.898438 16.410156 C 11.417969 16.273438 12.070312 15.894531 12.496094 15.132812 C 12.726562 14.722656 13.652344 13.964844 13.132812 12.734375 C 12.921875 12.234375 12.09375 11.769531 11.207031 11.25 C 11.328125 11.082031 11.457031 10.902344 11.578125 10.75 C 11.726562 10.628906 11.875 10.515625 11.96875 10.421875 C 12.171875 10.222656 12.035156 9.945312 11.898438 9.984375 C 11.835938 10.003906 12.007812 10.167969 11.855469 10.261719 C 11.816406 10.289062 11.761719 10.308594 11.695312 10.320312 C 11.445312 10.355469 11.003906 10.375 10.351562 10.261719 C 9.703125 10.152344 9.277344 9.84375 9.046875 9.617188 C 8.742188 9.222656 8.632812 8.859375 8.699219 8.707031 C 8.742188 8.613281 8.789062 8.523438 8.839844 8.4375 C 9.136719 8.023438 9.710938 7.296875 10.859375 7.234375 C 12.800781 7.132812 14.75 8.652344 15.304688 10.339844 C 15.941406 12.28125 15.648438 14.464844 14.589844 15.738281 C 13.652344 16.859375 12.640625 17.332031 11.949219 17.523438 C 11.839844 17.492188 11.746094 17.476562 11.675781 17.480469 C 11.035156 17.503906 10.089844 18.082031 10.089844 18.082031 C 9.164062 18.332031 8.796875 18.496094 8.457031 18.742188 C 7.28125 19.417969 6.96875 20.347656 6.949219 20.578125 C 6.925781 20.847656 7.144531 20.847656 7.246094 20.78125 C 7.394531 20.683594 7.453125 20.417969 7.589844 19.898438 C 7.765625 19.230469 8.34375 18.972656 8.710938 18.902344 C 8.78125 18.886719 8.851562 18.878906 8.914062 18.871094 C 8.988281 18.863281 9.066406 18.863281 9.144531 18.867188 C 10.703125 18.949219 12.324219 20.507812 13.257812 21.1875 C 14.890625 22.371094 16.144531 23.128906 16.707031 23.128906 C 17.0625 23.128906 17.503906 22.902344 17.503906 22.902344 C 17.503906 22.902344 17.714844 22.882812 18.015625 22.847656 C 18.019531 23.5 18.023438 24.015625 18.027344 24.316406 C 17.996094 24.558594 17.960938 24.808594 17.925781 25.050781 C 17.871094 25.414062 17.839844 26.128906 18.121094 25.917969 C 18.296875 25.785156 18.34375 25.128906 18.296875 24.488281 C 18.285156 24.277344 18.222656 23.859375 18.171875 23.535156 C 18.171875 23.324219 18.171875 23.085938 18.171875 22.828125 C 18.664062 22.769531 19.332031 22.683594 19.804688 22.582031 C 20.53125 22.429688 21.320312 22.070312 21.574219 21.945312 C 21.644531 21.910156 21.679688 21.882812 21.695312 21.859375 C 23.261719 21.285156 24.695312 20.023438 25.207031 18.613281 C 25.679688 17.316406 25.796875 15.285156 23.957031 13.617188 "/></g><g style="fill:rgb(0%,0%,0%);fill-opacity:1;"><g transform="translate(95.694598, 18.145163)"><path style="stroke:none;" d="M 0.671875 0.015625 C 0.585938 0.015625 0.515625 -0.0078125 0.453125 -0.0625 C 0.398438 -0.125 0.375 -0.203125 0.375 -0.296875 C 0.375 -0.378906 0.398438 -0.453125 0.453125 -0.515625 C 0.515625 -0.578125 0.585938 -0.609375 0.671875 -0.609375 C 0.753906 -0.609375 0.820312 -0.578125 0.875 -0.515625 C 0.9375 -0.453125 0.96875 -0.378906 0.96875 -0.296875 C 0.96875 -0.203125 0.9375 -0.125 0.875 -0.0625 C 0.820312 -0.0078125 0.753906 0.015625 0.671875 0.015625 Z M 0.671875 0.015625 "/></g></g><g style="fill:rgb(0%,0%,0%);fill-opacity:1;"><g transform="translate(97.041697, 18.145163)"><path style="stroke:none;" d="M 8.328125 -6.40625 C 9.023438 -6.40625 9.597656 -6.175781 10.046875 -5.71875 C 10.492188 -5.257812 10.71875 -4.570312 10.71875 -3.65625 L 10.71875 0 L 10.5 0 L 10.5 -3.6875 C 10.5 -4.5 10.300781 -5.117188 9.90625 -5.546875 C 9.519531 -5.984375 8.992188 -6.203125 8.328125 -6.203125 C 7.617188 -6.203125 7.046875 -5.953125 6.609375 -5.453125 C 6.179688 -4.953125 5.96875 -4.226562 5.96875 -3.28125 L 5.96875 0 L 5.75 0 L 5.75 -3.6875 C 5.75 -4.5 5.550781 -5.117188 5.15625 -5.546875 C 4.769531 -5.984375 4.242188 -6.203125 3.578125 -6.203125 C 2.859375 -6.203125 2.285156 -5.953125 1.859375 -5.453125 C 1.429688 -4.953125 1.21875 -4.226562 1.21875 -3.28125 L 1.21875 0 L 0.984375 0 L 0.984375 -6.265625 L 1.21875 -6.265625 L 1.21875 -4.609375 C 1.375 -5.210938 1.660156 -5.660156 2.078125 -5.953125 C 2.503906 -6.253906 3.003906 -6.40625 3.578125 -6.40625 C 4.160156 -6.40625 4.660156 -6.238281 5.078125 -5.90625 C 5.503906 -5.582031 5.773438 -5.085938 5.890625 -4.421875 C 6.035156 -5.085938 6.328125 -5.582031 6.765625 -5.90625 C 7.203125 -6.238281 7.722656 -6.40625 8.328125 -6.40625 Z M 8.328125 -6.40625 "/></g></g><g style="fill:rgb(0%,0%,0%);fill-opacity:1;"><g transform="translate(108.689464, 18.145163)"><path style="stroke:none;" d="M 3.71875 -0.125 C 4.414062 -0.125 5.003906 -0.300781 5.484375 -0.65625 C 5.972656 -1.019531 6.265625 -1.507812 6.359375 -2.125 L 6.59375 -2.125 C 6.488281 -1.46875 6.179688 -0.9375 5.671875 -0.53125 C 5.160156 -0.125 4.507812 0.078125 3.71875 0.078125 C 3.132812 0.078125 2.613281 -0.046875 2.15625 -0.296875 C 1.695312 -0.554688 1.335938 -0.925781 1.078125 -1.40625 C 0.828125 -1.894531 0.703125 -2.472656 0.703125 -3.140625 C 0.703125 -3.796875 0.828125 -4.363281 1.078125 -4.84375 C 1.335938 -5.332031 1.695312 -5.703125 2.15625 -5.953125 C 2.613281 -6.210938 3.132812 -6.34375 3.71875 -6.34375 C 4.320312 -6.34375 4.84375 -6.210938 5.28125 -5.953125 C 5.71875 -5.703125 6.046875 -5.367188 6.265625 -4.953125 C 6.484375 -4.546875 6.59375 -4.113281 6.59375 -3.65625 C 6.59375 -3.375 6.585938 -3.164062 6.578125 -3.03125 L 0.921875 -3.03125 C 0.929688 -2.382812 1.066406 -1.84375 1.328125 -1.40625 C 1.585938 -0.976562 1.925781 -0.65625 2.34375 -0.4375 C 2.757812 -0.226562 3.21875 -0.125 3.71875 -0.125 Z M 3.71875 -6.140625 C 3.21875 -6.140625 2.757812 -6.03125 2.34375 -5.8125 C 1.925781 -5.601562 1.585938 -5.28125 1.328125 -4.84375 C 1.066406 -4.414062 0.929688 -3.878906 0.921875 -3.234375 L 6.390625 -3.234375 C 6.421875 -3.878906 6.316406 -4.414062 6.078125 -4.84375 C 5.835938 -5.28125 5.503906 -5.601562 5.078125 -5.8125 C 4.660156 -6.03125 4.207031 -6.140625 3.71875 -6.140625 Z M 3.71875 -6.140625 "/></g></g></g></svg>