<svg xmlns="http://www.w3.org/2000/svg" xmlns:xlink="http://www.w3.org/1999/xlink" width="75" viewBox="0 0 75 30" height="30" version="1.0"><defs><clipPath id="b"><path d="M 1.210938 0 L 73.789062 0 L 73.789062 29.03125 L 1.210938 29.03125 Z M 1.210938 0"/></clipPath><clipPath id="d"><path d="M0 0H65V25H0z"/></clipPath><filter x="0%" y="0%" width="100%" xmlns:xlink="http://www.w3.org/1999/xlink" xlink:type="simple" xlink:actuate="onLoad" height="100%" id="a" xlink:show="other"><feColorMatrix values="0 0 0 0 1 0 0 0 0 1 0 0 0 0 1 0 0 0 1 0" color-interpolation-filters="sRGB"/></filter><mask id="c"><g filter="url(#a)"><path fill-opacity=".898" d="M-7.5 -3H82.5V33H-7.5z"/></g></mask></defs><g clip-path="url(#b)"><path fill="#0F9D58" d="M 71.902344 29.03125 L 3.097656 29.03125 C 2.058594 29.03125 1.210938 28.183594 1.210938 27.144531 L 1.210938 1.886719 C 1.210938 0.847656 2.058594 0 3.097656 0 L 71.902344 0 C 72.941406 0 73.789062 0.847656 73.789062 1.886719 L 73.789062 27.144531 C 73.789062 28.183594 72.941406 29.03125 71.902344 29.03125"/></g><g mask="url(#c)"><g><g clip-path="url(#d)" fill="#FFF" transform="translate(5 2)"><g><g><g><path d="M 7.417969 -13.914062 L 1.691406 -13.914062 L 1.691406 0 L 7.910156 0 C 10.546875 0 11.90625 -2.085938 11.90625 -4.152344 C 11.90625 -5.449219 11.335938 -6.90625 9.761719 -7.574219 C 10.703125 -8.285156 11.136719 -9.289062 11.136719 -10.292969 C 11.136719 -12.121094 9.703125 -13.914062 7.417969 -13.914062 Z M 7.378906 -8.285156 L 3.660156 -8.285156 L 3.660156 -12.023438 L 7.417969 -12.023438 C 8.539062 -12.023438 9.070312 -11.136719 9.070312 -10.210938 C 9.070312 -9.269531 8.480469 -8.285156 7.378906 -8.285156 Z M 7.910156 -1.929688 L 3.660156 -1.929688 L 3.660156 -6.316406 L 7.910156 -6.316406 C 9.25 -6.316406 9.917969 -5.214844 9.917969 -4.132812 C 9.917969 -3.050781 9.25 -1.929688 7.910156 -1.929688 Z M 7.910156 -1.929688" transform="translate(.728 18.95)"/></g></g></g><g><g><g><path d="M 1.476562 0 L 3.402344 0 L 3.402344 -13.773438 L 1.476562 -13.773438 Z M 1.476562 0" transform="translate(13.355 18.95)"/></g></g></g><g><g><g><path d="M 12.496094 -5.3125 C 12.496094 -8.972656 9.660156 -10.824219 6.789062 -10.824219 C 3.894531 -10.824219 1.023438 -8.992188 1.023438 -5.3125 C 1.023438 -1.652344 3.875 0.195312 6.730469 0.195312 C 9.621094 0.195312 12.496094 -1.632812 12.496094 -5.3125 Z M 2.953125 -5.3125 C 2.953125 -7.851562 4.859375 -9.109375 6.789062 -9.109375 C 8.679688 -9.109375 10.585938 -7.832031 10.585938 -5.3125 C 10.585938 -2.8125 8.679688 -1.535156 6.769531 -1.535156 C 4.859375 -1.535156 2.953125 -2.792969 2.953125 -5.3125 Z M 2.953125 -5.3125" transform="translate(18.233 18.95)"/></g></g></g><g><g><g><path d="M 12.140625 -0.394531 L 12.140625 -10.644531 L 10.234375 -10.644531 L 10.234375 -9.230469 C 9.445312 -10.390625 7.949219 -10.824219 6.632812 -10.824219 C 2.933594 -10.824219 0.984375 -8.207031 0.984375 -5.292969 C 0.984375 -2.402344 3.050781 -0.0195312 6.632812 -0.0195312 C 7.949219 -0.0195312 9.289062 -0.296875 10.210938 -1.515625 L 10.210938 -0.394531 C 10.210938 1.691406 8.285156 2.480469 6.554688 2.480469 C 5.175781 2.480469 3.402344 2.046875 3.402344 0.707031 L 1.496094 0.707031 C 1.496094 3.128906 3.996094 4.191406 6.671875 4.191406 C 9.308594 4.191406 12.140625 2.914062 12.140625 -0.394531 Z M 6.613281 -1.710938 C 4.269531 -1.710938 2.933594 -3.425781 2.914062 -5.292969 C 2.914062 -7.203125 4.269531 -9.128906 6.652344 -9.128906 C 9.011719 -9.128906 10.210938 -7.515625 10.210938 -5.589844 C 10.210938 -3.621094 9.011719 -1.710938 6.613281 -1.710938 Z M 6.613281 -1.710938" transform="translate(31.882 18.95)"/></g></g></g><g><g><g><path d="M 1.359375 -13.382812 C 1.359375 -12.632812 1.96875 -12.257812 2.558594 -12.257812 C 3.167969 -12.257812 3.757812 -12.632812 3.757812 -13.382812 C 3.757812 -14.128906 3.167969 -14.484375 2.578125 -14.484375 C 1.96875 -14.484375 1.359375 -14.109375 1.359375 -13.382812 Z M 1.59375 -10.765625 L 3.523438 -10.765625 L 3.523438 0 L 1.59375 0 Z M 1.59375 -10.765625" transform="translate(45.532 18.95)"/></g></g></g><g><g><g><path d="M 11.945312 -13.773438 L 10.015625 -13.773438 L 10.015625 -9.269531 C 9.089844 -10.527344 7.753906 -10.824219 6.433594 -10.824219 C 2.832031 -10.824219 0.789062 -8.421875 0.789062 -5.371094 C 0.789062 -2.203125 2.734375 0.175781 6.453125 0.175781 C 7.792969 0.15625 9.25 -0.277344 10.015625 -1.4375 L 10.015625 0 L 11.945312 0 Z M 10.015625 -5.332031 C 10.015625 -2.773438 8.226562 -1.535156 6.414062 -1.535156 C 4.074219 -1.535156 2.714844 -3.148438 2.714844 -5.332031 C 2.714844 -7.242188 4.074219 -9.128906 6.433594 -9.128906 C 8.226562 -9.128906 10.015625 -7.871094 10.015625 -5.332031 Z M 10.015625 -5.332031" transform="translate(50.822 18.95)"/></g></g></g></g></g></g><path fill="#0F9D58" d="M 51.515625 6.214844 L 54.417969 6.214844 L 54.417969 9.117188 L 51.515625 9.117188 L 51.515625 6.214844"/><path transform="matrix(.7258 0 0 .7258 49.765 -3.441)" fill="none" d="M 7.923396 15.209405 L 6.093535 12.809058 L 8.951347 11.947947 L 8.348569 10.118085 C 7.487458 10.387183 6.432597 10.769301 5.544576 11.054544 L 5.587632 8.078328 L 3.596312 8.078328 C 3.596312 9.014787 3.623222 10.118085 3.623222 11.054544 L 0.813847 10.118085 L 0.237979 11.947947 C 1.09909 12.184752 2.137805 12.518433 3.047354 12.809058 L 1.271312 15.209405 L 2.853604 16.355759 L 4.581208 13.837009 L 6.335722 16.355759 Z M 7.923396 15.209405" stroke="#FFD700" stroke-width=".9"/></svg>