<svg xmlns="http://www.w3.org/2000/svg" xmlns:xlink="http://www.w3.org/1999/xlink" contentScriptType="text/ecmascript" width="60" zoomAndPan="magnify" contentStyleType="text/css" height="30" preserveAspectRatio="xMidYMid meet" xmlns:v="https://vecta.io/nano"><defs><filter x="0%" y="0%" width="100%" xlink:type="simple" xlink:actuate="onLoad" height="100%" id="A" xlink:show="other"><feColorMatrix values="0 0 0 0 1 0 0 0 0 1 0 0 0 0 1 0 0 0 1 0" color-interpolation-filters="sRGB"/></filter><path d="M1.582-12.871V0h1.855v-8.988L9.652 0h1.469v-12.871H9.285v9.066l-6.27-9.066zm0 0" id="B"/><path d="M11.711 0v-9.945H9.91l.016 1.324c-.879-1.195-2.371-1.492-3.602-1.492-3.363 0-5.312 2.41-5.312 5.094 0 2.738 1.875 5.184 5.348 5.184C7.594.148 9.191-.258 9.91-1.344V0zM9.91-4.98c0 2.387-1.93 3.547-3.586 3.547-2.207 0-3.512-1.711-3.512-3.586 0-1.965 1.324-3.512 3.512-3.512 1.691 0 3.586 1.176 3.586 3.551zm0 0" id="C"/><path d="M3.418-8.715v-1.398H1.617V0h1.801v-5.406c0-1.949 1.195-3.031 2.777-3.031 1.656 0 2.187 1.453 2.187 2.848V0h1.801v-5.605c0-1.621.883-2.832 2.648-2.832 1.73 0 2.078 1.395 2.078 2.793V0h1.801v-5.664c0-2.516-1.195-4.449-3.934-4.449-1.453.02-2.574.625-3.18 1.73-.734-1.398-1.988-1.73-3.383-1.73-1.16 0-2.113.406-2.797 1.398zm0 0" id="D"/><path d="M3.031-3.75l-.699-.918L3.426-5l-.227-.695-1.078.355.02-1.137h-.762l.008 1.137-1.074-.355L.094-5l1.074.332-.68.918.605.441.66-.965.672.965zm0 0" id="E"/><clipPath id="F"><path d="M.969 0h58.063v29.031H.969zm0 0" clip-rule="nonzero"/></clipPath><mask id="G"><g filter="url(#A)"><path fill="rgb(0%, 0%, 0%)" fill-opacity=".949" d="M-6-3h72v36H-6z"/></g></mask><clipPath id="H"><path d="M0 0h55v23H0z"/></clipPath><clipPath id="I"><path d="M16 4h43.031v12H16zm0 0" clip-rule="nonzero"/></clipPath><mask id="J"><g filter="url(#A)"><path fill="rgb(0%, 0%, 0%)" fill-opacity=".949" d="M-6-3h72v36H-6z"/></g></mask><clipPath id="K"><path d="M.297 2H5v4H.297zm0 0" clip-rule="nonzero"/></clipPath><clipPath id="L"><path d="M0 0h44v12H0z"/></clipPath></defs><g clip-path="url(#F)"><path fill="rgb(5.879211%, 61.569214%, 34.509277%)" d="M57.465 29.031H2.535a1.57 1.57 0 0 1-1.566-1.566V1.57A1.57 1.57 0 0 1 2.535 0h54.93a1.57 1.57 0 0 1 1.566 1.57v25.895a1.57 1.57 0 0 1-1.566 1.566zm0 0"/></g><g mask="url(#G)"><g transform="translate(2 5)"><g clip-path="url(#H)" fill="rgb(100%, 100%, 100%)"><use x="1.071" y="17.645" xlink:href="#B"/><use x="12.855" y="17.645" xlink:href="#C"/><use x="24.84" y="17.645" xlink:href="#D"/><use x="42.029" y="17.645" xlink:href="#C"/></g></g></g><g clip-path="url(#I)"><g mask="url(#J)"><g transform="translate(16 4)"><g clip-path="url(#L)"><g clip-path="url(#K)"><g fill="rgb(100%, 84.309387%, 0%)"><use x=".832" y="9.025" xlink:href="#E"/></g></g><g fill="rgb(100%, 84.309387%, 0%)"><use x="9.526" y="9.025" xlink:href="#E"/><use x="18.22" y="9.025" xlink:href="#E"/><use x="26.914" y="9.025" xlink:href="#E"/><use x="35.608" y="9.025" xlink:href="#E"/></g></g></g></g></g></svg>