<svg xmlns="http://www.w3.org/2000/svg" width="500" viewBox="0 0 375 82.5" height="110" version="1.0"><defs><clipPath id="a"><path d="M2.621 1H87v80H2.621Zm0 0"/></clipPath></defs><g clip-path="url(#a)"><path fill="#ee4d2d" d="M84.73 35.723 51.582 2.574a3.08 3.08 0 0 0-3.363-.668 3.08 3.08 0 0 0-1.907 2.852v6.937a7.454 7.454 0 0 1-7.453 7.453H10.074a7.452 7.452 0 0 0-7.453 7.454v28.785a7.452 7.452 0 0 0 7.453 7.453H38.86a7.454 7.454 0 0 1 7.453 7.453v6.937c0 1.25.75 2.375 1.907 2.852a3.08 3.08 0 0 0 3.363-.668L84.73 46.266a7.457 7.457 0 0 0 0-10.543"/></g><path fill="#fdece8" d="M108.691 3.531h244.465c10.301 0 18.649 8.344 18.649 18.637v37.277c0 10.293-8.348 18.637-18.649 18.637H108.691c-10.296 0-18.648-8.344-18.648-18.637V22.168c0-10.293 8.352-18.637 18.648-18.637"/><path d="M111.91 25.148c0 1.77 1.445 2.656 2.844 2.656 1.445 0 2.843-.887 2.843-2.656 0-1.77-1.398-2.61-2.797-2.61-1.445 0-2.89.883-2.89 2.61Zm.558 6.195h4.567v25.492h-4.567ZM129.29 34.745v-3.12h-4.566v25.21h4.567V43.136c0-4.383 2.61-7.828 7.41-7.828 5.496 0 6.754 3.262 6.754 8.012v13.515h4.523V43.273c0-7.223-3.261-12.02-10.953-12.02-3.168 0-5.87.79-7.734 3.492ZM156.78 56.835h4.566V35.398h5.125v-3.961h-5.125c0-3.121 1.633-3.914 4.055-3.914.512 0 1.07.047 1.629.094v-3.82c-.653-.048-1.258-.094-1.817-.094-5.5 0-8.433 2.238-8.433 7.734h-3.867v3.96h3.867ZM197.364 44.253c0-8.668-6.71-13.047-13.511-13.047-6.852 0-13.657 4.332-13.657 13.047 0 8.668 6.758 13.047 13.516 13.047 6.851 0 13.652-4.332 13.652-13.047Zm-22.601 0c0-6.011 4.523-8.992 9.09-8.992 4.472 0 8.992 3.027 8.992 8.992 0 5.918-4.52 8.946-9.04 8.946-4.519 0-9.042-2.98-9.042-8.946ZM208.778 34.745v-3.539h-4.567v25.63h4.567v-13.7c0-4.941 3.027-7.691 7.035-7.691 4.195 0 5.547 3.683 5.547 7.222v14.168h4.566V42.62c0-4.097 2.238-7.175 6.711-7.175 4.379 0 5.266 3.543 5.266 7.086v14.304h4.566V42.484c0-6.387-3.027-11.278-9.973-11.278-3.68.047-6.523 1.582-8.062 4.38-1.863-3.544-5.031-4.38-8.574-4.38-2.934 0-5.36 1.024-7.082 3.54ZM274.242 43.136c-.512-7.922-6.664-11.883-12.907-11.883-6.664 0-13.093 4.332-13.093 13s6.523 13.047 13 13.047c5.172 0 10.343-2.75 12.254-8.246h-4.704c-1.492 2.84-4.382 4.191-7.503 4.191-3.774 0-8.48-2.98-8.48-7.921h21.339c.094-.418.14-.883.14-1.399 0-.277 0-.512-.046-.789Zm-4.797-1.586h-16.453c.933-4.472 4.66-6.289 8.343-6.289 3.633 0 7.223 1.77 8.11 6.29ZM284.77 34.745v-3.074h-4.52v25.164h4.52V43.183c0-4.613 3.543-8.016 7.781-8.016.747 0 1.54.094 2.332.325v-4.008c-1.027-.23-2.003-.371-2.984-.371-2.797 0-5.312 1.117-7.129 3.632ZM324.562 43.136c-.512-7.922-6.664-11.883-12.907-11.883-6.664 0-13.093 4.332-13.093 13s6.523 13.047 13 13.047c5.172 0 10.343-2.75 12.254-8.246h-4.703c-1.493 2.84-4.383 4.191-7.504 4.191-3.774 0-8.48-2.98-8.48-7.921h21.339c.094-.418.14-.883.14-1.399 0-.277 0-.512-.046-.789Zm-4.797-1.586h-16.453c.933-4.472 4.66-6.289 8.343-6.289 3.633 0 7.223 1.77 8.11 6.29ZM339.239 39.081l-3.871 4.614v-19.48H330.8v32.62h4.567v-7.687l3.265-3.496 8.48 11.183h5.266v-.418l-10.812-13.933 10.16-10.86h-5.5Zm0 0" fill="#ee4d2d"/></svg>
