<svg xmlns="http://www.w3.org/2000/svg" xmlns:xlink="http://www.w3.org/1999/xlink" width="60" viewBox="0 0 60 30" height="30" version="1.0"><defs><clipPath id="b"><path d="M 0.96875 0 L 59.03125 0 L 59.03125 29.03125 L 0.96875 29.03125 Z M 0.96875 0"/></clipPath><clipPath id="d"><path d="M0 0H55V24H0z"/></clipPath><clipPath id="h"><path d="M 16 1 L 59.03125 1 L 59.03125 14 L 16 14 Z M 16 1"/></clipPath><clipPath id="k"><path d="M 0.0664062 2 L 5 2 L 5 7 L 0.0664062 7 Z M 0.0664062 2"/></clipPath><clipPath id="j"><path d="M0 0H44V13H0z"/></clipPath><g id="e"><path d="M 1.664062 -13.546875 L 1.664062 0 L 3.617188 0 L 3.617188 -9.460938 L 10.160156 0 L 11.707031 0 L 11.707031 -13.546875 L 9.773438 -13.546875 L 9.773438 -4.003906 L 3.171875 -13.546875 Z M 1.664062 -13.546875"/></g><g id="f"><path d="M 12.324219 0 L 12.324219 -10.46875 L 10.429688 -10.46875 L 10.449219 -9.074219 C 9.519531 -10.332031 7.953125 -10.640625 6.65625 -10.640625 C 3.117188 -10.640625 1.0625 -8.109375 1.0625 -5.28125 C 1.0625 -2.398438 3.039062 0.175781 6.695312 0.175781 C 7.992188 0.15625 9.675781 -0.269531 10.429688 -1.414062 L 10.429688 0 Z M 10.429688 -5.242188 C 10.429688 -2.726562 8.398438 -1.507812 6.65625 -1.507812 C 4.335938 -1.507812 2.960938 -3.308594 2.960938 -5.28125 C 2.960938 -7.351562 4.355469 -8.976562 6.65625 -8.976562 C 8.4375 -8.976562 10.429688 -7.738281 10.429688 -5.242188 Z M 10.429688 -5.242188"/></g><g id="g"><path d="M 3.597656 -9.171875 L 3.597656 -10.640625 L 1.703125 -10.640625 L 1.703125 0 L 3.597656 0 L 3.597656 -5.6875 C 3.597656 -7.738281 4.855469 -8.882812 6.519531 -8.882812 C 8.261719 -8.882812 8.824219 -7.351562 8.824219 -5.882812 L 8.824219 0 L 10.71875 0 L 10.71875 -5.902344 C 10.71875 -7.605469 11.648438 -8.882812 13.507812 -8.882812 C 15.324219 -8.882812 15.691406 -7.410156 15.691406 -5.941406 L 15.691406 0 L 17.589844 0 L 17.589844 -5.960938 C 17.589844 -8.609375 16.332031 -10.640625 13.449219 -10.640625 C 11.917969 -10.625 10.738281 -9.984375 10.101562 -8.824219 C 9.328125 -10.292969 8.011719 -10.640625 6.539062 -10.640625 C 5.320312 -10.640625 4.316406 -10.21875 3.597656 -9.171875 Z M 3.597656 -9.171875"/></g><g id="l"><path d="M 3.191406 -3.949219 L 2.457031 -4.914062 L 3.609375 -5.261719 L 3.367188 -6 C 3.019531 -5.890625 2.59375 -5.738281 2.234375 -5.621094 L 2.253906 -6.820312 L 1.453125 -6.820312 C 1.453125 -6.445312 1.460938 -6 1.460938 -5.621094 L 0.328125 -6 L 0.0976562 -5.261719 C 0.445312 -5.167969 0.859375 -5.03125 1.230469 -4.914062 L 0.511719 -3.949219 L 1.152344 -3.484375 L 1.847656 -4.5 L 2.554688 -3.484375 Z M 3.191406 -3.949219"/></g><mask id="c"><g filter="url(#a)"><path fill-opacity=".949" d="M-6 -3H66V33H-6z"/></g></mask><mask id="i"><g filter="url(#a)"><path fill-opacity=".949" d="M-6 -3H66V33H-6z"/></g></mask><filter x="0%" y="0%" width="100%" xmlns:xlink="http://www.w3.org/1999/xlink" xlink:type="simple" xlink:actuate="onLoad" height="100%" id="a" xlink:show="other"><feColorMatrix values="0 0 0 0 1 0 0 0 0 1 0 0 0 0 1 0 0 0 1 0" color-interpolation-filters="sRGB"/></filter></defs><g clip-path="url(#b)"><path fill="#0F9D58" d="M 57.464844 29.03125 L 2.535156 29.03125 C 1.671875 29.03125 0.96875 28.328125 0.96875 27.464844 L 0.96875 1.570312 C 0.96875 0.703125 1.671875 0 2.535156 0 L 57.464844 0 C 58.328125 0 59.03125 0.703125 59.03125 1.570312 L 59.03125 27.464844 C 59.03125 28.328125 58.328125 29.03125 57.464844 29.03125 Z M 57.464844 29.03125"/></g><g mask="url(#c)"><g><g clip-path="url(#d)" fill="#FFF" transform="translate(2 2)"><g><use x=".963" y="18.565" xmlns:xlink="http://www.w3.org/1999/xlink" xlink:href="#e" xlink:type="simple" xlink:actuate="onLoad" xlink:show="embed"/></g><g><use x="12.493" y="18.565" xmlns:xlink="http://www.w3.org/1999/xlink" xlink:href="#f" xlink:type="simple" xlink:actuate="onLoad" xlink:show="embed"/></g><g><use x="24.236" y="18.565" xmlns:xlink="http://www.w3.org/1999/xlink" xlink:href="#g" xlink:type="simple" xlink:actuate="onLoad" xlink:show="embed"/></g><g><use x="41.454" y="18.565" xmlns:xlink="http://www.w3.org/1999/xlink" xlink:href="#f" xlink:type="simple" xlink:actuate="onLoad" xlink:show="embed"/></g></g></g></g><g clip-path="url(#h)"><g mask="url(#i)"><g><g clip-path="url(#j)" transform="translate(16 1)"><g clip-path="url(#k)"><g fill="#FFD700"><use x=".598" y="9.645" xmlns:xlink="http://www.w3.org/1999/xlink" xlink:href="#l" xlink:type="simple" xlink:actuate="onLoad" xlink:show="embed"/></g></g><g fill="#FFD700"><use x="9.365" y="9.645" xmlns:xlink="http://www.w3.org/1999/xlink" xlink:href="#l" xlink:type="simple" xlink:actuate="onLoad" xlink:show="embed"/></g><g fill="#FFD700"><use x="18.131" y="9.645" xmlns:xlink="http://www.w3.org/1999/xlink" xlink:href="#l" xlink:type="simple" xlink:actuate="onLoad" xlink:show="embed"/></g><g fill="#FFD700"><use x="26.897" y="9.645" xmlns:xlink="http://www.w3.org/1999/xlink" xlink:href="#l" xlink:type="simple" xlink:actuate="onLoad" xlink:show="embed"/></g><g fill="#FFD700"><use x="35.663" y="9.645" xmlns:xlink="http://www.w3.org/1999/xlink" xlink:href="#l" xlink:type="simple" xlink:actuate="onLoad" xlink:show="embed"/></g></g></g></g></g></svg>