<?xml version="1.0" encoding="UTF-8"?>
<svg xmlns="http://www.w3.org/2000/svg" xmlns:xlink="http://www.w3.org/1999/xlink" width="30pt" height="30.000001pt" viewBox="0 0 30 30.000001" version="1.2">
<defs>
<clipPath id="clip1">
  <path d="M 0.484375 0 L 29.515625 0 L 29.515625 29.03125 L 0.484375 29.03125 Z M 0.484375 0 "/>
</clipPath>
</defs>
<g id="surface1">
<g clip-path="url(#clip1)" clip-rule="nonzero">
<path style=" stroke:none;fill-rule:nonzero;fill:rgb(0%,87.059021%,45.878601%);fill-opacity:1;" d="M 15 0 C 14.046875 0 13.101562 0.09375 12.167969 0.277344 C 11.234375 0.464844 10.324219 0.738281 9.445312 1.105469 C 8.5625 1.46875 7.726562 1.917969 6.933594 2.445312 C 6.144531 2.976562 5.410156 3.578125 4.734375 4.25 C 4.0625 4.925781 3.460938 5.660156 2.929688 6.453125 C 2.402344 7.242188 1.953125 8.082031 1.589844 8.960938 C 1.222656 9.839844 0.949219 10.75 0.761719 11.683594 C 0.578125 12.617188 0.484375 13.5625 0.484375 14.515625 C 0.484375 15.46875 0.578125 16.414062 0.761719 17.347656 C 0.949219 18.28125 1.222656 19.191406 1.589844 20.070312 C 1.953125 20.953125 2.402344 21.789062 2.929688 22.582031 C 3.460938 23.375 4.0625 24.105469 4.734375 24.78125 C 5.410156 25.453125 6.144531 26.054688 6.933594 26.585938 C 7.726562 27.117188 8.5625 27.5625 9.445312 27.925781 C 10.324219 28.292969 11.234375 28.566406 12.167969 28.753906 C 13.101562 28.9375 14.046875 29.03125 15 29.03125 C 15.953125 29.03125 16.898438 28.9375 17.832031 28.753906 C 18.765625 28.566406 19.675781 28.292969 20.554688 27.925781 C 21.4375 27.5625 22.273438 27.117188 23.066406 26.585938 C 23.855469 26.054688 24.589844 25.453125 25.265625 24.78125 C 25.9375 24.105469 26.539062 23.375 27.070312 22.582031 C 27.597656 21.789062 28.046875 20.953125 28.410156 20.070312 C 28.777344 19.191406 29.050781 18.28125 29.238281 17.347656 C 29.421875 16.414062 29.515625 15.46875 29.515625 14.515625 C 29.515625 13.5625 29.421875 12.617188 29.238281 11.683594 C 29.050781 10.75 28.777344 9.839844 28.410156 8.960938 C 28.046875 8.082031 27.597656 7.242188 27.070312 6.453125 C 26.539062 5.660156 25.9375 4.925781 25.265625 4.25 C 24.589844 3.578125 23.855469 2.976562 23.066406 2.445312 C 22.273438 1.917969 21.4375 1.46875 20.554688 1.105469 C 19.675781 0.738281 18.765625 0.464844 17.832031 0.277344 C 16.898438 0.09375 15.953125 0 15 0 Z M 15 0 "/>
</g>
<path style=" stroke:none;fill-rule:nonzero;fill:rgb(0%,0%,0%);fill-opacity:1;" d="M 15 2.902344 C 14.238281 2.902344 13.480469 2.976562 12.734375 3.125 C 11.988281 3.273438 11.261719 3.496094 10.554688 3.789062 C 9.851562 4.078125 9.183594 4.4375 8.546875 4.859375 C 7.914062 5.285156 7.328125 5.765625 6.789062 6.304688 C 6.25 6.84375 5.769531 7.429688 5.34375 8.0625 C 4.921875 8.699219 4.5625 9.367188 4.269531 10.070312 C 3.980469 10.777344 3.757812 11.503906 3.609375 12.25 C 3.460938 13 3.386719 13.753906 3.386719 14.515625 C 3.386719 15.277344 3.460938 16.035156 3.609375 16.78125 C 3.757812 17.53125 3.980469 18.253906 4.269531 18.960938 C 4.5625 19.664062 4.921875 20.332031 5.34375 20.96875 C 5.769531 21.601562 6.25 22.1875 6.789062 22.726562 C 7.328125 23.265625 7.914062 23.75 8.546875 24.171875 C 9.183594 24.59375 9.851562 24.953125 10.554688 25.246094 C 11.261719 25.535156 11.988281 25.757812 12.734375 25.90625 C 13.480469 26.054688 14.238281 26.128906 15 26.128906 C 15.761719 26.128906 16.519531 26.054688 17.265625 25.90625 C 18.011719 25.757812 18.738281 25.535156 19.445312 25.246094 C 20.148438 24.953125 20.816406 24.59375 21.453125 24.171875 C 22.085938 23.75 22.671875 23.265625 23.210938 22.726562 C 23.75 22.1875 24.230469 21.601562 24.65625 20.96875 C 25.078125 20.332031 25.4375 19.664062 25.730469 18.960938 C 26.019531 18.253906 26.242188 17.53125 26.390625 16.78125 C 26.539062 16.035156 26.613281 15.277344 26.613281 14.515625 C 26.613281 13.753906 26.539062 13 26.390625 12.25 C 26.242188 11.503906 26.019531 10.777344 25.730469 10.070312 C 25.4375 9.367188 25.078125 8.699219 24.65625 8.0625 C 24.230469 7.429688 23.75 6.84375 23.210938 6.304688 C 22.671875 5.765625 22.085938 5.285156 21.453125 4.859375 C 20.816406 4.4375 20.148438 4.078125 19.445312 3.789062 C 18.738281 3.496094 18.011719 3.273438 17.265625 3.125 C 16.519531 2.976562 15.761719 2.902344 15 2.902344 Z M 15 2.902344 "/>
<path style=" stroke:none;fill-rule:nonzero;fill:rgb(100%,100%,100%);fill-opacity:1;" d="M 15 8.773438 C 14.621094 8.773438 14.25 8.808594 13.878906 8.882812 C 13.511719 8.957031 13.152344 9.066406 12.800781 9.210938 C 12.453125 9.355469 12.121094 9.53125 11.808594 9.742188 C 11.496094 9.949219 11.207031 10.1875 10.9375 10.457031 C 10.671875 10.722656 10.433594 11.011719 10.226562 11.324219 C 10.015625 11.640625 9.839844 11.96875 9.695312 12.320312 C 9.550781 12.667969 9.441406 13.027344 9.367188 13.394531 C 9.292969 13.765625 9.257812 14.140625 9.257812 14.515625 C 9.257812 14.894531 9.292969 15.265625 9.367188 15.636719 C 9.441406 16.007812 9.550781 16.367188 9.695312 16.714844 C 9.839844 17.0625 10.015625 17.394531 10.226562 17.707031 C 10.433594 18.019531 10.671875 18.308594 10.9375 18.578125 C 11.207031 18.84375 11.496094 19.082031 11.808594 19.292969 C 12.121094 19.5 12.453125 19.675781 12.800781 19.820312 C 13.152344 19.964844 13.511719 20.074219 13.878906 20.148438 C 14.25 20.222656 14.621094 20.257812 15 20.257812 C 15.378906 20.257812 15.75 20.222656 16.121094 20.148438 C 16.488281 20.074219 16.847656 19.964844 17.199219 19.820312 C 17.546875 19.675781 17.878906 19.5 18.191406 19.292969 C 18.503906 19.082031 18.792969 18.84375 19.0625 18.578125 C 19.328125 18.308594 19.566406 18.019531 19.773438 17.707031 C 19.984375 17.394531 20.160156 17.0625 20.304688 16.714844 C 20.449219 16.367188 20.558594 16.007812 20.632812 15.636719 C 20.707031 15.265625 20.742188 14.894531 20.742188 14.515625 C 20.742188 14.140625 20.707031 13.765625 20.632812 13.394531 C 20.558594 13.027344 20.449219 12.667969 20.304688 12.320312 C 20.160156 11.96875 19.984375 11.640625 19.773438 11.324219 C 19.566406 11.011719 19.328125 10.722656 19.0625 10.457031 C 18.792969 10.1875 18.503906 9.949219 18.191406 9.742188 C 17.878906 9.53125 17.546875 9.355469 17.199219 9.210938 C 16.847656 9.066406 16.488281 8.957031 16.121094 8.882812 C 15.75 8.808594 15.378906 8.773438 15 8.773438 Z M 15 8.773438 "/>
<path style=" stroke:none;fill-rule:nonzero;fill:rgb(0%,0%,0%);fill-opacity:1;" d="M 20.875 23.746094 L 23.753906 21.003906 L 24.6875 24.867188 Z M 20.875 23.746094 "/>
<path style=" stroke:none;fill-rule:nonzero;fill:rgb(0%,0%,0%);fill-opacity:1;" d="M 15 13.039062 C 14.804688 13.039062 14.617188 13.078125 14.433594 13.152344 C 14.253906 13.226562 14.09375 13.335938 13.957031 13.472656 C 13.816406 13.609375 13.710938 13.769531 13.636719 13.953125 C 13.5625 14.132812 13.523438 14.320312 13.523438 14.515625 C 13.523438 14.710938 13.5625 14.898438 13.636719 15.082031 C 13.710938 15.261719 13.816406 15.421875 13.957031 15.558594 C 14.09375 15.699219 14.253906 15.804688 14.433594 15.878906 C 14.617188 15.953125 14.804688 15.992188 15 15.992188 C 15.195312 15.992188 15.382812 15.953125 15.566406 15.878906 C 15.746094 15.804688 15.90625 15.699219 16.042969 15.558594 C 16.183594 15.421875 16.289062 15.261719 16.363281 15.082031 C 16.4375 14.898438 16.476562 14.710938 16.476562 14.515625 C 16.476562 14.320312 16.4375 14.132812 16.363281 13.953125 C 16.289062 13.769531 16.183594 13.609375 16.042969 13.472656 C 15.90625 13.335938 15.746094 13.226562 15.566406 13.152344 C 15.382812 13.078125 15.195312 13.039062 15 13.039062 Z M 15 13.039062 "/>
</g>
</svg>
