<?xml version="1.0" encoding="UTF-8"?>
<svg xmlns="http://www.w3.org/2000/svg" xmlns:xlink="http://www.w3.org/1999/xlink" width="30pt" height="30.000001pt" viewBox="0 0 30 30.000001" version="1.2">
<defs>
<clipPath id="clip1">
  <path d="M 0.484375 0 L 29.515625 0 L 29.515625 29.03125 L 0.484375 29.03125 Z M 0.484375 0 "/>
</clipPath>
</defs>
<g id="surface1">
<g clip-path="url(#clip1)" clip-rule="nonzero">
<path style=" stroke:none;fill-rule:nonzero;fill:rgb(11.369324%,72.549438%,32.939148%);fill-opacity:1;" d="M 15 0 C 7.015625 0 0.484375 6.53125 0.484375 14.515625 C 0.484375 22.5 7.015625 29.03125 15 29.03125 C 22.984375 29.03125 29.515625 22.5 29.515625 14.515625 C 29.515625 6.53125 22.984375 0 15 0 Z M 20.722656 21.773438 C 20.457031 21.773438 20.324219 21.640625 20.058594 21.507812 C 18.0625 20.308594 15.535156 19.644531 12.871094 19.644531 C 11.410156 19.644531 9.8125 19.910156 8.480469 20.175781 C 8.214844 20.175781 7.949219 20.308594 7.816406 20.308594 C 7.285156 20.308594 6.882812 19.910156 6.882812 19.378906 C 6.882812 18.847656 7.152344 18.449219 7.683594 18.449219 C 9.414062 18.046875 11.144531 17.78125 13.007812 17.78125 C 16.066406 17.78125 18.859375 18.582031 21.257812 19.910156 C 21.523438 20.175781 21.789062 20.308594 21.789062 20.84375 C 21.519531 21.507812 21.121094 21.773438 20.722656 21.773438 Z M 22.183594 18.050781 C 21.917969 18.050781 21.652344 17.917969 21.386719 17.785156 C 19.125 16.320312 15.929688 15.519531 12.472656 15.519531 C 10.742188 15.519531 9.144531 15.789062 7.949219 16.054688 C 7.679688 16.1875 7.546875 16.1875 7.28125 16.1875 C 6.617188 16.1875 6.214844 15.65625 6.214844 15.121094 C 6.214844 14.457031 6.484375 14.191406 7.148438 13.921875 C 8.746094 13.523438 10.34375 13.125 12.605469 13.125 C 16.332031 13.125 19.789062 14.054688 22.71875 15.785156 C 23.117188 16.050781 23.382812 16.449219 23.382812 16.851562 C 23.25 17.515625 22.851562 18.050781 22.183594 18.050781 Z M 23.914062 13.789062 C 23.648438 13.789062 23.515625 13.65625 23.117188 13.523438 C 20.457031 12.058594 16.597656 11.128906 12.871094 11.128906 C 11.007812 11.128906 9.011719 11.394531 7.28125 11.792969 C 7.015625 11.792969 6.882812 11.925781 6.484375 11.925781 C 5.683594 12.0625 5.152344 11.394531 5.152344 10.597656 C 5.152344 9.800781 5.550781 9.398438 6.082031 9.265625 C 8.214844 8.734375 10.476562 8.46875 12.871094 8.46875 C 16.996094 8.46875 21.253906 9.398438 24.582031 11.128906 C 24.980469 11.394531 25.378906 11.792969 25.378906 12.460938 C 25.246094 13.257812 24.714844 13.789062 23.914062 13.789062 Z M 23.914062 13.789062 "/>
</g>
</g>
</svg>
