<?xml version="1.0" encoding="UTF-8"?>
<svg xmlns="http://www.w3.org/2000/svg" xmlns:xlink="http://www.w3.org/1999/xlink" width="30pt" height="30.000001pt" viewBox="0 0 30 30.000001" version="1.2">
<defs>
<clipPath id="clip1">
  <path d="M 0.796875 0.316406 L 29.105469 0.316406 L 29.105469 28.621094 L 0.796875 28.621094 Z M 0.796875 0.316406 "/>
</clipPath>
</defs>
<g id="surface1">
<g clip-path="url(#clip1)" clip-rule="nonzero">
<path style=" stroke:none;fill-rule:nonzero;fill:rgb(11.369324%,72.549438%,32.939148%);fill-opacity:1;" d="M 14.953125 0.316406 C 7.167969 0.316406 0.796875 6.683594 0.796875 14.46875 C 0.796875 22.253906 7.167969 28.621094 14.953125 28.621094 C 22.734375 28.621094 29.105469 22.253906 29.105469 14.46875 C 29.105469 6.683594 22.734375 0.316406 14.953125 0.316406 Z M 20.53125 21.542969 C 20.273438 21.542969 20.140625 21.414062 19.882812 21.285156 C 17.9375 20.117188 15.472656 19.46875 12.878906 19.46875 C 11.449219 19.46875 9.894531 19.726562 8.59375 19.988281 C 8.335938 19.988281 8.078125 20.117188 7.945312 20.117188 C 7.429688 20.117188 7.039062 19.726562 7.039062 19.210938 C 7.039062 18.691406 7.296875 18.300781 7.816406 18.300781 C 9.503906 17.910156 11.191406 17.652344 13.007812 17.652344 C 15.992188 17.652344 18.714844 18.429688 21.050781 19.726562 C 21.3125 19.988281 21.570312 20.117188 21.570312 20.636719 C 21.308594 21.285156 20.917969 21.542969 20.53125 21.542969 Z M 21.957031 17.914062 C 21.699219 17.914062 21.4375 17.78125 21.179688 17.652344 C 18.972656 16.226562 15.859375 15.449219 12.488281 15.449219 C 10.800781 15.449219 9.242188 15.707031 8.074219 15.96875 C 7.816406 16.097656 7.6875 16.097656 7.425781 16.097656 C 6.777344 16.097656 6.386719 15.578125 6.386719 15.058594 C 6.386719 14.410156 6.648438 14.148438 7.296875 13.886719 C 8.851562 13.5 10.410156 13.109375 12.617188 13.109375 C 16.25 13.109375 19.621094 14.019531 22.476562 15.703125 C 22.867188 15.964844 23.125 16.355469 23.125 16.742188 C 22.996094 17.394531 22.605469 17.914062 21.957031 17.914062 Z M 23.644531 13.761719 C 23.382812 13.761719 23.253906 13.628906 22.867188 13.5 C 20.269531 12.074219 16.507812 11.164062 12.875 11.164062 C 11.058594 11.164062 9.113281 11.425781 7.425781 11.8125 C 7.167969 11.8125 7.035156 11.945312 6.648438 11.945312 C 5.867188 12.074219 5.351562 11.425781 5.351562 10.648438 C 5.351562 9.871094 5.738281 9.480469 6.257812 9.351562 C 8.335938 8.828125 10.539062 8.570312 12.875 8.570312 C 16.898438 8.570312 21.050781 9.480469 24.292969 11.164062 C 24.683594 11.425781 25.074219 11.8125 25.074219 12.460938 C 24.941406 13.242188 24.421875 13.761719 23.644531 13.761719 Z M 23.644531 13.761719 "/>
</g>
</g>
</svg>
